<svg version="1.0" xmlns="http://www.w3.org/2000/svg" width="933.333" height="933.333" viewBox="0 0 700 700"><path d="M222.5 38.4C153.8 48.3 96.9 56.9 96.3 57.3 95.3 58 95 110 95 311.9c0 240.4.1 254 1.8 255.9 1.2 1.4 239.8 110.3 251.4 114.7 1.1.4 238.5-106.1 251.7-112.9l3.1-1.7V313.5c0-215.2-.2-254.6-1.4-255.7-.9-.9-10.8-2.8-26.7-5.1-45.2-6.5-221.3-31.7-224.4-32.1-1.6-.2-59.2 7.8-128 17.8zm341.3 129.3.2 44.2-8.5 5.5c-14.1 9.2-25.6 22.2-30.4 34.4l-2 5.1 2.9 3c2.2 2.1 3 3.9 3 6.4 0 4-3.1 8.4-6.3 8.9l-2.2.3-.3 117.2L520 510h2c3.5 0 7 4.4 7 8.7-.1 4.2-1.3 6.3-4.7 8.1-1.5.8-11.1 1.2-31.3 1.2-32.6 0-33.9-.2-36-6.4-1.6-4.9.9-10.3 5.4-11.4l3.1-.8V392.5c0-116.2 0-117-2-117.3-2.8-.5-6.2-3.9-6.9-6.8-.8-3.2 1.7-9 4.3-9.9 2.8-.9 2.7-1.7-1.4-9.9-9.7-19.6-32.3-37.2-58.9-46.1-63.5-21.3-139.7.4-161.8 46l-3.8 8 2.6.7c3.7 1 4.4 2.4 4.4 9 0 7.9-.5 8.8-5.1 8.8H233v235h3.3c4.7 0 5.7 1.5 5.7 8.6 0 10 2.2 9.4-36.9 9.4-27.9 0-34.1-.2-35-1.4-.7-.9-1.1-4.2-.9-8.8l.3-7.3 4.3-.3 4.2-.3-.2-117.2-.3-117.2-4-.5-4-.5-.3-7.8-.3-7.8 3.1-1.2c3.5-1.3 3.4-2.1-1.2-10.9-6.3-11.9-18.6-24.3-32.2-32.2l-6.6-3.9v-43.2c0-33.7.3-43.4 1.3-43.8.6-.3 97.7-.5 215.7-.4l214.5.2.3 44.2zM446.7 283.6c.8 2-2.9 14.6-4.4 15.1-.7.3-3.5-1.7-6.3-4.3-6.8-6.3-6.5-8.2 1.5-10.5 7.8-2.2 8.4-2.2 9.2-.3zm-188.3 2.2c3.3.9 6.1 2.2 6.3 2.9.3.7-1.7 3.5-4.3 6.3-6.4 6.9-8.2 6.5-10.6-2-2.7-9.7-2.2-10.2 8.6-7.2zm175.2 10.6c.8 2-5.4 24.7-7.1 26.5-1.2 1.2-2.7.1-11-7.9-5.2-5.2-9.5-10.2-9.5-11.1 0-1.3 1.3-2.2 4.3-2.9 2.3-.7 7.8-2.2 12.2-3.5 9.8-2.8 10.4-2.9 11.1-1.1zm-157.7 3.7c6.4 1.7 12.2 3.7 13 4.4 1.2 1.2.1 2.8-7.9 11-5.2 5.2-10.2 9.5-11.1 9.5-1.9 0-2.3-1-6.4-16.3-2.5-9.5-2.6-11.7-.3-11.7.6 0 6.3 1.4 12.7 3.1zM414 317.7c0 .9-14.5 26.8-32.2 57.5-22.4 38.8-32.7 55.8-33.9 55.8-1.2 0-11.5-17-33.8-55.6-17.7-30.6-32.1-56.5-32.1-57.5 0-1.8 2.1-1.9 66-1.9 60.9 0 66 .1 66 1.7zm-52 121.1c0 1.9-10.8 21.5-13 23.6-.8.8-1.6.5-2.9-1.1-3.4-4.1-13.2-22.3-12.6-23.3.4-.6 6.4-1 14.6-1 12.9 0 13.9.1 13.9 1.8zm-6 28.8c0 2.8-6.4 13.4-8 13.4-1.8 0-9.4-12.6-8.5-14 .3-.6 4.2-1 8.6-1 6.6 0 7.9.3 7.9 1.6z"/><path d="M139 168.2v38.3l4.3 2.4c13.6 7.7 27.6 22.2 34.2 35.3 2.5 4.9 4.5 9.6 4.5 10.4 0 1.2 3.9 1.4 22.8 1.4h22.9l2.7-6.9c10.9-27.9 42.6-49.9 84.5-58.8 11.4-2.4 14.7-2.7 33.6-2.7 23.3-.1 34.6 1.6 52.6 7.4 32.5 10.6 58 31.5 67 54.9l2.4 6.1h45.2l2.2-6c4.8-13.1 19.5-30.2 33.2-38.6l5.9-3.7V130H139v38.2zm37 98.3c0 1.3 3.9 1.5 29.5 1.5s29.5-.2 29.5-1.5-3.9-1.5-29.5-1.5-29.5.2-29.5 1.5zm287.7-.9c-2 2 3.1 2.4 29.4 2.4 25 0 28.9-.2 28.9-1.5s-3.9-1.5-28.8-1.5c-15.9 0-29.2.3-29.5.6zM185 392.5V509h40V276h-40v116.5zm288 0V509h40V276h-40v116.5zM176 518.7c0 1 6.6 1.3 29.6 1.3 20.1 0 29.5-.3 29.2-1-.5-1.7-58.8-1.9-58.8-.3zm287.4-.8c-1.6 1.7 4.4 2.1 29.7 2.1 19.3 0 29-.3 28.7-1-.3-1-57.4-2-58.4-1.1zM338 321.9c-4.7 1.5-9.3 4.3-14 8.7-10.3 9.6-13.4 25.3-7.6 37.9 6.7 14.9 22 23.2 37.4 20.4 27.3-5 37.9-38.4 18.3-58-7.2-7.1-14.1-9.9-24.4-9.8-4 0-8.3.4-9.7.8z"/></svg>