<?xml version="1.0" encoding="UTF-8" standalone="no"?>
<!-- Created with Inkscape (http://www.inkscape.org/) -->

<svg
   width="760"
   height="500"
   viewBox="0 0 201.08333 132.29166"
   version="1.1"
   id="svg1"
   xml:space="preserve"
   inkscape:version="1.3.2 (091e20e, 2023-11-25)"
   sodipodi:docname="github_pages_Tutorial_bright.svg"
   xmlns:inkscape="http://www.inkscape.org/namespaces/inkscape"
   xmlns:sodipodi="http://sodipodi.sourceforge.net/DTD/sodipodi-0.dtd"
   xmlns:xlink="http://www.w3.org/1999/xlink"
   xmlns="http://www.w3.org/2000/svg"
   xmlns:svg="http://www.w3.org/2000/svg"><sodipodi:namedview
     id="namedview1"
     pagecolor="#505050"
     bordercolor="#eeeeee"
     borderopacity="1"
     inkscape:showpageshadow="0"
     inkscape:pageopacity="0"
     inkscape:pagecheckerboard="0"
     inkscape:deskcolor="#505050"
     inkscape:document-units="px"
     inkscape:zoom="0.80056061"
     inkscape:cx="463.42525"
     inkscape:cy="216.72313"
     inkscape:window-width="1600"
     inkscape:window-height="828"
     inkscape:window-x="0"
     inkscape:window-y="0"
     inkscape:window-maximized="1"
     inkscape:current-layer="layer2" /><defs
     id="defs1"><inkscape:path-effect
       effect="fillet_chamfer"
       id="path-effect2"
       is_visible="true"
       lpeversion="1"
       nodesatellites_param="F,0,0,1,0,6.9131532,0,1 @ F,0,0,1,0,6.9524395,0,1 @ F,0,0,1,0,6.9511255,0,1 @ F,0,0,1,0,6.6713982,0,1"
       radius="0"
       unit="px"
       method="auto"
       mode="F"
       chamfer_steps="1"
       flexible="false"
       use_knot_distance="true"
       apply_no_radius="true"
       apply_with_radius="true"
       only_selected="false"
       hide_knots="false" /><inkscape:path-effect
       effect="fillet_chamfer"
       id="path-effect1"
       is_visible="true"
       lpeversion="1"
       nodesatellites_param="F,0,0,1,0,0,0,1 @ F,0,0,1,0,0,0,1 @ F,0,0,1,0,0,0,1 @ F,0,0,1,0,0,0,1"
       radius="0"
       unit="px"
       method="auto"
       mode="F"
       chamfer_steps="1"
       flexible="false"
       use_knot_distance="true"
       apply_no_radius="true"
       apply_with_radius="true"
       only_selected="false"
       hide_knots="false" /><linearGradient
       id="linearGradient8"
       inkscape:collect="always"><stop
         style="stop-color:#ffffff;stop-opacity:0.33356875;"
         offset="0"
         id="stop8" /><stop
         style="stop-color:#ffffff;stop-opacity:0;"
         offset="0.87978137"
         id="stop9" /></linearGradient><pattern
       inkscape:collect="always"
       xlink:href="#Wavy"
       id="pattern1"
       patternTransform="scale(1)" /><pattern
       inkscape:collect="always"
       patternUnits="userSpaceOnUse"
       width="30.066020"
       height="5.1805778"
       id="Wavy"
       inkscape:stockid="Wavy"
       inkscape:isstock="true"
       inkscape:label="">
      <path
   style="stroke:none;"
   d="M 7.597,0.061 C 5.079,-0.187 2.656,0.302 -0.01,1.788 L -0.01,3.061 C 2.773,1.431 5.173,1.052 7.472,1.280 C 9.770,1.508 11.969,2.361 14.253,3.218 C 18.820,4.931 23.804,6.676 30.066,3.061 L 30.062,1.788 C 23.622,5.497 19.246,3.770 14.691,2.061 C 12.413,1.207 10.115,0.311 7.597,0.061 z "
   id="path786" />
    </pattern><radialGradient
       inkscape:collect="always"
       xlink:href="#linearGradient8"
       id="radialGradient9"
       cx="100.54166"
       cy="66.145828"
       fx="100.54166"
       fy="66.145828"
       r="100.54166"
       gradientTransform="matrix(1.3510645,0,0,0.88998187,-35.200446,1.5075038)"
       gradientUnits="userSpaceOnUse" /></defs><g
     inkscape:groupmode="layer"
     id="layer2"
     inkscape:label="Background"><rect
       style="fill:#000000;fill-opacity:1;stroke:#11111f;stroke-width:0;stroke-linecap:square;stroke-miterlimit:0;stroke-opacity:1;paint-order:markers fill stroke"
       id="rect2"
       width="201.08333"
       height="132.29166"
       x="0"
       y="0"
       inkscape:label="black" /><rect
       style="fill:url(#radialGradient9);stroke:#11111f;stroke-width:0;stroke-linecap:square;stroke-miterlimit:0;stroke-opacity:0;paint-order:markers fill stroke"
       id="rect2-5"
       width="271.67654"
       height="178.96049"
       x="-35.200443"
       y="-29.104166"
       inkscape:label="white-mask" /></g><g
     inkscape:label="Warstwa 1"
     inkscape:groupmode="layer"
     id="layer1"
     style="display:inline"><g
       id="g86"
       transform="matrix(1.6875,0,0,1.6875,-107.03494,-47.818379)"
       style="fill:#ffffff;fill-opacity:1"><path
         d="m 129.17952,81.902449 h -0.88087 v -9.727403 h 2.97056 c 2.42595,0 3.25642,1.398983 3.25642,2.917035 0,1.518042 -0.83362,2.917024 -3.25642,2.917024 h -2.08654 v 3.893344 z m 0,-4.708913 h 2.20264 a 1.9109531,1.9109531 0 0 0 2.18182,-2.098485 1.9109531,1.9109531 0 0 0 -2.1789,-2.101455 h -2.20556 z m 8.57543,-1.101375 a 5.6941642,5.6941643 0 0 0 -1.94367,0.327375 v -0.77985 a 5.2268437,5.2268438 0 0 1 1.94367,-0.351225 c 1.9467,0 2.45272,0.884025 2.45272,2.178844 v 4.435076 h -0.50625 l -0.19687,-0.51795 a 3.402211,3.402211 0 0 1 -1.9557,0.6489 1.973461,1.973461 0 0 1 -2.27104,-2.089541 c 0,-1.101375 0.60975,-1.919891 2.30974,-2.024066 l 1.71157,-0.104625 v -0.36315 c 0,-0.946575 -0.33637,-1.360294 -1.54485,-1.360294 z m -0.23175,2.53008 c -0.9225,0.08888 -1.32458,0.5715 -1.32458,1.324564 0,0.583425 0.14288,1.282905 1.3752,1.282905 a 3.14325,3.14325 0 0 0 1.72643,-0.51795 v -2.256232 z m 5.53646,1.467439 a 0.75009375,0.75009375 0 0 0 -0.2475,0.476213 c 0,0.327375 0.1575,0.47025 0.49387,0.506025 l 2.20264,0.2619 c 1.2204,0.13095 1.77998,0.6102 1.77998,1.738316 0,1.583527 -1.58355,2.202648 -3.37242,2.202648 -1.81575,0 -2.9052,-0.529874 -2.9052,-1.955598 a 1.8127265,1.8127265 0 0 1 1.3365,-1.711519 v -0.01462 a 0.95547652,0.95547653 0 0 1 -0.41625,-0.854325 1.1668125,1.1668125 0 0 1 0.49388,-0.884025 2.2205156,2.2205156 0 0 1 -1.03838,-2.12526 c 0,-1.336477 0.5715,-2.440789 2.53013,-2.440789 a 4.048125,4.048125 0 0 1 1.03837,0.13095 h 2.20264 v 0.491175 l -1.08675,0.312525 a 2.7027187,2.7027188 0 0 1 0.37463,1.503169 c 0,1.336478 -0.5715,2.440778 -2.53002,2.440778 a 4.158258,4.158258 0 0 1 -0.85725,-0.07988 z m 0.378,1.750219 c -0.85725,0.1935 -1.58355,0.59535 -1.58355,1.42875 0,0.9585 0.72675,1.229321 2.0628,1.229321 1.29476,0 2.51516,-0.32445 2.51516,-1.42875 0,-0.657787 -0.31275,-0.9198 -1.10137,-1.01205 z m 2.16394,-4.110626 c 0,-0.85725 -0.1665,-1.649025 -1.68469,-1.649025 -1.51808,0 -1.68773,0.791775 -1.68773,1.649025 0,0.85725 0.16988,1.646032 1.68773,1.646032 1.51807,0 1.68469,-0.791775 1.68469,-1.649014 z m 4.8726,-2.440789 c 2.20275,0 2.46465,1.506139 2.46465,3.372446 v 0.4167 h -4.28029 c 0.0562,1.128116 0.351,2.152058 1.81564,2.152058 a 4.9559767,4.9559764 0 0 0 2.1402,-0.36315 v 0.776925 a 5.2536326,5.2536326 0 0 1 -2.1402,0.389925 c -2.19072,0 -2.72352,-1.503169 -2.72352,-3.372447 0,-1.869277 0.53325,-3.372446 2.72352,-3.372457 z m -1.81564,3.048007 h 3.37241 c 0,-1.151932 -0.0675,-2.24136 -1.55677,-2.24136 -1.50604,0 -1.77694,1.071563 -1.81564,2.24136 z m 7.74202,-0.1548 c 1.84253,0.16965 2.28308,0.791775 2.28308,1.854405 0,1.000125 -0.6345,1.997269 -2.60753,1.997269 a 6.3906799,6.3906799 0 0 1 -1.93173,-0.32445 V 80.93199 a 5.7269062,5.7269063 0 0 0 1.94658,0.297675 c 1.34843,0 1.71158,-0.5715 1.71158,-1.1817 0,-0.59535 -0.18113,-1.01205 -1.46453,-1.113187 -1.88111,-0.16965 -2.27103,-0.8334 -2.27103,-1.726403 0,-0.922725 0.59512,-1.91988 2.42583,-1.91988 a 4.842867,4.842867 0 0 1 1.86638,0.327375 v 0.773888 a 5.3548361,5.3548361 0 0 0 -1.8783,-0.297675 c -1.28588,0 -1.55666,0.482175 -1.55666,1.11915 0,0.565537 0.23175,0.863212 1.47633,0.970312 z m -61.873759,-1.96155 h -3.173062 a 0.14882816,0.14882816 0 0 0 -0.1485,0.148838 v 1.55376 a 0.14882816,0.14882816 0 0 0 0.1485,0.148837 h 1.238287 v 1.931794 a 3.7713045,3.7713045 0 0 1 -1.045125,0.09562 c -0.907875,-3.4e-5 -2.175862,-0.33345 -2.175862,-3.119467 0,-2.786063 1.318612,-3.155164 2.559825,-3.155164 a 5.0303906,5.0303906 0 0 1 1.827562,0.279787 0.14882816,0.14882816 0 0 0 0.178875,-0.148837 l 0.35775,-1.500188 a 0.13989848,0.13989848 0 0 0 -0.05625,-0.1161 5.1048049,5.1048049 0 0 0 -2.68785,-0.491175 c -2.128275,0 -4.3011,0.898875 -4.3011,5.238754 0,4.339823 2.491313,4.985741 4.589775,4.985741 a 5.1673125,5.1673125 0 0 0 2.792025,-0.744187 0.12799215,0.12799215 0 0 0 0.045,-0.113063 v -4.845847 a 0.14882816,0.14882816 0 0 0 -0.1485,-0.148838 z m 16.504989,-3.851673 a 0.14882816,0.14882816 0 0 0 -0.1485,-0.148838 h -1.78886 a 0.14882816,0.14882816 0 0 0 -0.1485,0.148838 v 3.455786 h -2.78607 v -3.455786 a 0.14882816,0.14882816 0 0 0 -0.1485,-0.148838 h -1.78594 a 0.14882816,0.14882816 0 0 0 -0.1485,0.148838 v 9.361293 a 0.14882816,0.14882816 0 0 0 0.1485,0.148838 h 1.78594 a 0.14882816,0.14882816 0 0 0 0.1485,-0.148838 V 77.72628 h 2.78899 l -0.008,4.003481 a 0.14882816,0.14882816 0 0 0 0.1485,0.148838 h 1.79494 a 0.14882816,0.14882816 0 0 0 0.1485,-0.148838 z m -13.064176,1.22634 a 1.1549062,1.1549062 0 1 0 -1.151888,1.166816 1.1608594,1.1608594 0 0 0 1.151888,-1.166816 z m -0.124875,6.155538 v -4.318998 a 0.14882816,0.14882816 0 0 0 -0.1485,-0.148838 h -1.785938 a 0.16966406,0.16966406 0 0 0 -0.151874,0.166725 v 6.191246 c 0,0.178538 0.112499,0.235125 0.258749,0.235125 h 1.607288 c 0.178875,0 0.2205,-0.08888 0.2205,-0.238162 z m 20.133451,-4.455922 h -1.77694 a 0.14882816,0.14882816 0 0 0 -0.1485,0.148837 v 4.589865 a 2.0032266,2.0032266 0 0 1 -1.09237,0.327375 c -0.64013,0 -0.81,-0.288787 -0.81,-0.913837 v -4.0005 a 0.14882816,0.14882816 0 0 0 -0.1485,-0.148838 h -1.79787 a 0.14882816,0.14882816 0 0 0 -0.1485,0.148838 v 4.304104 c 0,1.863337 1.03613,2.318748 2.46465,2.318748 a 4.1612344,4.1612344 0 0 0 2.11332,-0.645862 3.7921406,3.7921406 0 0 0 0.0675,0.381037 0.15478121,0.15478121 0 0 0 0.1305,0.07988 l 1.14603,-0.006 a 0.14882816,0.14882816 0 0 0 0.1485,-0.148837 v -6.2865 a 0.14882816,0.14882816 0 0 0 -0.1485,-0.148838 z m 4.94707,-0.20835 a 3.3367266,3.3367266 0 0 0 -1.69368,0.446512 v -3.164085 a 0.14882816,0.14882816 0 0 0 -0.1485,-0.148837 h -1.79179 a 0.14882816,0.14882816 0 0 0 -0.1485,0.148837 v 9.361294 a 0.14882816,0.14882816 0 0 0 0.1485,0.148838 h 1.24414 a 0.14882816,0.14882816 0 0 0 0.1305,-0.07988 2.8961953,2.8961954 0 0 0 0.0787,-0.428625 3.2146875,3.2146875 0 0 0 2.12231,0.693562 c 1.63114,0 2.56579,-0.827437 2.56579,-3.71475 0,-2.887267 -1.49423,-3.259339 -2.50324,-3.259339 z m -0.69975,5.271491 a 2.1312188,2.1312188 0 0 1 -1.03275,-0.297675 v -2.964667 a 2.3604141,2.3604141 0 0 1 0.91688,-0.297675 c 0.64012,-0.05625 1.25606,0.136912 1.25606,1.660916 0,1.607344 -0.28012,1.925842 -1.14007,1.902026 z M 102.95037,75.27954 h -1.33954 l -0.008,-1.771054 c 0,-0.06863 -0.0337,-0.10125 -0.1125,-0.10125 h -1.830596 c -0.0675,0 -0.1125,0.03037 -0.1125,0.09787 v 1.830657 l -0.982125,0.238162 a 0.14882816,0.14882816 0 0 0 -0.10125,0.142875 v 1.151921 a 0.14882816,0.14882816 0 0 0 0.1485,0.148838 h 0.937125 v 2.768209 c 0,2.059773 1.440676,2.262183 2.416946,2.262183 a 4.0927732,4.0927733 0 0 0 1.06313,-0.178537 0.13692184,0.13692184 0 0 0 0.0787,-0.13095 l 0.003,-1.26801 a 0.14882816,0.14882816 0 0 0 -0.1485,-0.148838 c -0.0788,0 -0.28013,0.03037 -0.48488,0.03037 -0.65812,0 -0.88087,-0.303637 -0.88087,-0.70245 v -2.63133 h 1.34235 a 0.14882816,0.14882816 0 0 0 0.1485,-0.148837 v -1.440653 a 0.14882816,0.14882816 0 0 0 -0.1485,-0.148837 z"
         id="path1"
         style="fill:#ffffff;fill-opacity:1;stroke-width:2.97656" /><path
         fill-rule="evenodd"
         clip-rule="evenodd"
         d="m 122.98257,31.901497 c -10.4703,0 -18.93452,8.526612 -18.93452,19.075194 0,8.432043 5.42333,15.569593 12.94688,18.095795 0.94064,0.189903 1.2852,-0.410441 1.2852,-0.91545 0,-0.44222 -0.0311,-1.958019 -0.0311,-3.537381 -5.2671,1.137141 -6.36393,-2.273891 -6.36393,-2.273891 -0.84647,-2.210718 -2.10065,-2.778899 -2.10065,-2.778899 -1.72393,-1.168535 0.12562,-1.168535 0.12562,-1.168535 1.91228,0.126344 2.91571,1.958021 2.91571,1.958021 1.69253,2.905248 4.4199,2.084366 5.5171,1.578973 0.15664,-1.231708 0.6585,-2.084369 1.1914,-2.557983 -4.2009,-0.442221 -8.62078,-2.08437 -8.62078,-9.41144 0,-2.084371 0.75188,-3.789692 1.94328,-5.115969 -0.18788,-0.473615 -0.84646,-2.432022 0.18829,-5.053178 0,0 1.59875,-0.505397 5.20358,1.958018 a 18.204315,18.204315 0 0 1 4.7338,-0.631743 c 1.59873,0 3.2285,0.221303 4.73342,0.631743 3.60521,-2.463415 5.20396,-1.958018 5.20396,-1.958018 1.0348,2.621156 0.37594,4.579563 0.18789,5.053178 1.2228,1.326277 1.94368,3.031598 1.94368,5.115969 0,7.32707 -4.41987,8.937438 -8.65218,9.41144 0.68986,0.599963 1.28518,1.736716 1.28518,3.536993 0,2.557983 -0.0311,4.610958 -0.0311,5.242317 0,0.505394 0.34494,1.105745 1.28519,0.916221 7.52357,-2.526976 12.9469,-9.664138 12.9469,-18.096181 0.0311,-10.548582 -8.4642,-19.075194 -18.90311,-19.075194 z"
         fill="#24292f"
         id="path1-1"
         style="fill:#ffffff;fill-opacity:1;stroke-width:0.387571" /></g><g
       id="g2"
       transform="translate(7.8673125,11.641667)"><path
         style="fill:#f05133;fill-opacity:1;stroke:#11111f;stroke-width:0;stroke-linecap:round;stroke-miterlimit:0;paint-order:markers fill stroke"
         id="rect1"
         width="105.51743"
         height="28.319433"
         x="35.045975"
         y="90.687233"
         sodipodi:type="rect"
         transform="matrix(1.0029938,0,0,0.93428185,4.5366033,2.5850613)"
         inkscape:path-effect="#path-effect2"
         d="m 41.959128,90.687233 h 91.651842 a 6.9524395,6.9524395 45 0 1 6.95244,6.952439 v 14.415868 a 6.9511255,6.9511255 135 0 1 -6.95113,6.95113 H 41.717373 a 6.6713982,6.6713982 45 0 1 -6.671398,-6.6714 V 97.600386 a 6.9131532,6.9131532 135 0 1 6.913153,-6.913153 z" /><text
         xml:space="preserve"
         style="font-style:normal;font-variant:normal;font-weight:normal;font-stretch:normal;font-size:20.6615px;font-family:'Apex Sans Book';-inkscape-font-specification:'Apex Sans Book, Normal';font-variant-ligatures:normal;font-variant-caps:normal;font-variant-numeric:normal;font-variant-east-asian:normal;display:inline;fill:#ffffff;fill-opacity:1;stroke:#ffffff;stroke-width:0;stroke-linecap:square;stroke-miterlimit:0;stroke-opacity:1;paint-order:markers fill stroke"
         x="56.17799"
         y="108.18182"
         id="text1"><tspan
           sodipodi:role="line"
           id="tspan1"
           style="font-style:normal;font-variant:normal;font-weight:normal;font-stretch:normal;font-size:20.6615px;font-family:'Apex Sans Book';-inkscape-font-specification:'Apex Sans Book, Normal';font-variant-ligatures:normal;font-variant-caps:normal;font-variant-numeric:normal;font-variant-east-asian:normal;fill:#ffffff;fill-opacity:1;stroke:#ffffff;stroke-width:0;stroke-opacity:1"
           x="56.17799"
           y="108.18182">Tutorial</tspan></text></g></g></svg>
