<?xml version="1.0" standalone="no"?>
<!DOCTYPE svg PUBLIC "-//W3C//DTD SVG 20010904//EN"
 "http://www.w3.org/TR/2001/REC-SVG-20010904/DTD/svg10.dtd">
<svg version="1.0" xmlns="http://www.w3.org/2000/svg"
 width="700.000000pt" height="700.000000pt" viewBox="0 0 700.000000 700.000000"
 preserveAspectRatio="xMidYMid meet">
<metadata>
Created by potrace 1.14, written by Peter Selinger 2001-2017
</metadata>
<g transform="translate(0.000000,700.000000) scale(0.100000,-0.100000)"
fill="#000000" stroke="none">
<path d="M2225 6616 c-687 -99 -1256 -185 -1262 -189 -10 -7 -13 -527 -13
-2546 0 -2404 1 -2540 18 -2559 12 -14 2398 -1103 2514 -1147 11 -4 2385 1061
2517 1129 l31 17 0 2544 c0 2152 -2 2546 -14 2557 -9 9 -108 28 -267 51 -452
65 -2213 317 -2244 321 -16 2 -592 -78 -1280 -178z m3413 -1293 l2 -442 -85
-55 c-141 -92 -256 -222 -304 -344 l-20 -51 29 -30 c22 -21 30 -39 30 -64 0
-40 -31 -84 -63 -89 l-22 -3 -3 -1172 -2 -1173 20 0 c35 0 70 -44 70 -87 -1
-42 -13 -63 -47 -81 -15 -8 -111 -12 -313 -12 -326 0 -339 2 -360 64 -16 49 9
103 54 114 l31 8 0 1169 c0 1162 0 1170 -20 1173 -28 5 -62 39 -69 68 -8 32
17 90 43 99 28 9 27 17 -14 99 -97 196 -323 372 -589 461 -635 213 -1397 -4
-1618 -460 l-38 -80 26 -7 c37 -10 44 -24 44 -90 0 -79 -5 -88 -51 -88 l-39 0
0 -1175 0 -1175 33 0 c47 0 57 -15 57 -86 0 -100 22 -94 -369 -94 -279 0 -341
2 -350 14 -7 9 -11 42 -9 88 l3 73 43 3 42 3 -2 1172 -3 1172 -40 5 -40 5 -3
78 -3 78 31 12 c35 13 34 21 -12 109 -63 119 -186 243 -322 322 l-66 39 0 432
c0 337 3 434 13 438 6 3 977 5 2157 4 l2145 -2 3 -442z m-1171 -1159 c8 -20
-29 -146 -44 -151 -7 -3 -35 17 -63 43 -68 63 -65 82 15 105 78 22 84 22 92 3z
m-1883 -22 c33 -9 61 -22 63 -29 3 -7 -17 -35 -43 -63 -64 -69 -82 -65 -106
20 -27 97 -22 102 86 72z m1752 -106 c8 -20 -54 -247 -71 -265 -12 -12 -27 -1
-110 79 -52 52 -95 102 -95 111 0 13 13 22 43 29 23 7 78 22 122 35 98 28 104
29 111 11z m-1577 -37 c64 -17 122 -37 130 -44 12 -12 1 -28 -79 -110 -52 -52
-102 -95 -111 -95 -19 0 -23 10 -64 163 -25 95 -26 117 -3 117 6 0 63 -14 127
-31z m1381 -176 c0 -9 -145 -268 -322 -575 -224 -388 -327 -558 -339 -558 -12
0 -115 170 -338 556 -177 306 -321 565 -321 575 0 18 21 19 660 19 609 0 660
-1 660 -17z m-520 -1211 c0 -19 -108 -215 -130 -236 -8 -8 -16 -5 -29 11 -34
41 -132 223 -126 233 4 6 64 10 146 10 129 0 139 -1 139 -18z m-60 -288 c0
-28 -64 -134 -80 -134 -18 0 -94 126 -85 140 3 6 42 10 86 10 66 0 79 -3 79
-16z"/>
<path d="M1390 5318 l0 -383 43 -24 c136 -77 276 -222 342 -353 25 -49 45 -96
45 -104 0 -12 39 -14 228 -14 l229 0 27 69 c109 279 426 499 845 588 114 24
147 27 336 27 233 1 346 -16 526 -74 325 -106 580 -315 670 -549 l24 -61 226
0 226 0 22 60 c48 131 195 302 332 386 l59 37 0 388 0 389 -2090 0 -2090 0 0
-382z"/>
<path d="M1760 4335 c0 -13 39 -15 295 -15 256 0 295 2 295 15 0 13 -39 15
-295 15 -256 0 -295 -2 -295 -15z"/>
<path d="M4637 4344 c-20 -20 31 -24 294 -24 250 0 289 2 289 15 0 13 -39 15
-288 15 -159 0 -292 -3 -295 -6z"/>
<path d="M1850 3075 l0 -1165 200 0 200 0 0 1165 0 1165 -200 0 -200 0 0
-1165z"/>
<path d="M4730 3075 l0 -1165 200 0 200 0 0 1165 0 1165 -200 0 -200 0 0
-1165z"/>
<path d="M1760 1813 c0 -10 66 -13 296 -13 201 0 295 3 292 10 -5 17 -588 19
-588 3z"/>
<path d="M4634 1821 c-16 -17 44 -21 297 -21 193 0 290 3 287 10 -3 10 -574
20 -584 11z"/>
<path d="M3380 3781 c-47 -15 -93 -43 -140 -87 -103 -96 -134 -253 -76 -379
67 -149 220 -232 374 -204 273 50 379 384 183 580 -72 71 -141 99 -244 98 -40
0 -83 -4 -97 -8z"/>
</g>
</svg>
