<svg width="1000" height="1000" xmlns:xlink="http://www.w3.org/1999/xlink" xmlns="http://www.w3.org/2000/svg"><defs><radialGradient xlink:href="#a" id="b" cx="498.547" cy="502.128" fx="498.547" fy="502.128" r="500" gradientUnits="userSpaceOnUse"/><linearGradient id="a"><stop style="stop-color:#fff;stop-opacity:.61696005" offset=".345"/><stop style="stop-color:#fff;stop-opacity:.09" offset="1"/></linearGradient></defs><g style="display:inline"><path style="fill:url(#b);fill-opacity:.38000003;stroke:#000;stroke-width:0;stroke-linecap:square;stroke-linejoin:miter;stroke-miterlimit:0;stroke-dasharray:none;stroke-opacity:1;paint-order:markers fill stroke" d="M-1.453 2.128h1000v1000h-1000z"/><g style="display:inline"><path style="display:inline;fill:#11111f;fill-opacity:1;stroke:#11111f;stroke-width:6.96129;stroke-linecap:round;stroke-linejoin:round;stroke-miterlimit:0;stroke-dasharray:none;stroke-opacity:1;paint-order:markers fill stroke" d="m408.151 276.822 181.189-32.346 178.036 31.783a31.041 31.041 50.03 0 1 25.586 30.524l.474 441.2a78.706 78.706 120.29 0 1-40.12 68.684L589.89 908.59l-163.34-91.877a79.066 79.066 59.648 0 1-40.304-68.827l-.477-444.305a27.154 27.154 129.908 0 1 22.381-26.76z" transform="matrix(1.75146 0 0 1.41011 -534.119 -310.85)"/><g style="display:inline;stroke:#ffb81c;stroke-width:18.1708;stroke-dasharray:none;stroke-opacity:1"><g style="stroke:#ffb81c;stroke-width:11.2291;stroke-dasharray:none;stroke-opacity:1"><g style="fill:none;stroke:#ffb81c;stroke-width:11.2291;stroke-dasharray:none;stroke-opacity:1"><path style="fill:none;fill-opacity:0;stroke:#ffb81c;stroke-width:11.2291;stroke-dasharray:none;stroke-opacity:1" d="M777.147 277.224h69.324v353.873h-69.324z" transform="translate(-86.892 118.351) scale(.97425)"/><path d="M619.15 201.088h282.31a24.627 24.627 45 0 1 24.627 24.628 23.201 23.201 140.61 0 1-25.358 20.822H618.764a24.241 24.241 45 0 1-24.241-24.241 22.982 22.982 139.266 0 1 24.627-21.209z" style="fill:none;fill-opacity:0;stroke:#ffb81c;stroke-width:36.0399;stroke-linecap:round;stroke-linejoin:round;stroke-dasharray:none;stroke-opacity:1" transform="matrix(.28499 0 0 .32333 487.34 308.286)"/><path d="M619.15 201.088h282.31a24.627 24.627 45 0 1 24.627 24.628 23.201 23.201 140.61 0 1-25.358 20.822H618.764a24.241 24.241 45 0 1-24.241-24.241 22.982 22.982 139.266 0 1 24.627-21.209z" style="fill:none;fill-opacity:0;stroke:#ffb81c;stroke-width:36.0399;stroke-linecap:round;stroke-linejoin:round;stroke-dasharray:none;stroke-opacity:1" transform="matrix(.28499 0 0 .32333 487.34 668.64)"/></g><g style="fill:none;stroke:#ffb81c;stroke-width:11.2291;stroke-dasharray:none;stroke-opacity:1"><path style="fill:none;fill-opacity:0;stroke:#ffb81c;stroke-width:11.2291;stroke-dasharray:none;stroke-opacity:1" d="M383.615 277.224h69.324v353.873h-69.324z" transform="translate(-114.317 118.351) scale(.97425)"/><path d="M619.15 201.088h282.31a24.627 24.627 45 0 1 24.627 24.628 23.201 23.201 140.61 0 1-25.358 20.822H618.764a24.241 24.241 45 0 1-24.241-24.241 22.982 22.982 139.266 0 1 24.627-21.209z" style="fill:none;fill-opacity:0;stroke:#ffb81c;stroke-width:36.0399;stroke-linecap:round;stroke-linejoin:round;stroke-dasharray:none;stroke-opacity:1" transform="matrix(.28499 0 0 .32333 76.514 308.286)"/><path d="M619.15 201.088h282.31a24.627 24.627 45 0 1 24.627 24.628 23.201 23.201 140.61 0 1-25.358 20.822H618.764a24.241 24.241 45 0 1-24.241-24.241 22.982 22.982 139.266 0 1 24.627-21.209z" style="fill:none;fill-opacity:0;stroke:#ffb81c;stroke-width:36.0399;stroke-linecap:round;stroke-linejoin:round;stroke-dasharray:none;stroke-opacity:1" transform="matrix(.28499 0 0 .32333 76.514 668.64)"/></g><path style="fill:none;fill-opacity:1;stroke:#ffb81c;stroke-width:11.2291;stroke-linecap:round;stroke-linejoin:round;stroke-dasharray:none;stroke-opacity:1" d="M873.605 64.08v.18H381.52v-.045h-65.74V184.18a175.66 119.482 0 0 1 65.26 76.193h.48v-.436h74.697v-.726h.363l.076-.264h-.799c13.333-58.103 86.841-100.969 173.297-101.056 60.129.158 115.961 21.225 147.989 55.84a122.034 122.034 0 0 1 6.01 6.753 112.816 112.816 0 0 1 4.503 5.934c3.385 4.735 6.305 9.618 8.742 14.615.06.131.12.262.178.393 2.898 6.042 5.083 12.233 6.533 18.512h70.496v.298h3.854a175.66 119.482 0 0 1 61.887-74.095V64.08Z" transform="translate(-114.317 118.351) scale(.97425)"/></g><g style="display:inline;fill:#ffb81c;fill-opacity:1;stroke:#ffb81c;stroke-width:20.4493;stroke-dasharray:none;stroke-opacity:1"><path style="fill:#ffb81c;fill-opacity:1;stroke:#ffb81c;stroke-width:20.4493;stroke-linecap:round;stroke-linejoin:round;stroke-dasharray:none;stroke-opacity:1" d="m332.198 274.933 256.68 444.58 256.678-444.58Zm256.68.046A147.844 147.844 0 0 1 736.72 422.824a147.844 147.844 0 0 1-147.843 147.843 147.844 147.844 0 0 1-147.845-147.843 147.844 147.844 0 0 1 147.845-147.845Z" transform="translate(286.965 356.398) scale(.35665)"/><g style="fill:#ffb81c;fill-opacity:1;stroke:#ffb81c;stroke-width:20.4493;stroke-dasharray:none;stroke-opacity:1"><path style="fill:#ffb81c;fill-opacity:1;stroke:#ffb81c;stroke-width:71.05;stroke-linecap:round;stroke-linejoin:round;stroke-dasharray:none;stroke-opacity:1" d="M249.877 957.671 78.654 661.105H421.1Z" transform="translate(471.34 559.352) scale(.10265)"/><path style="fill:#ffb81c;fill-opacity:1;stroke:#ffb81c;stroke-width:142.1;stroke-linecap:round;stroke-linejoin:round;stroke-dasharray:none;stroke-opacity:1" d="M249.877 957.671 78.654 661.105H421.1Z" transform="translate(484.166 634.81) scale(.05133)"/></g><g style="fill:#ffb81c;fill-opacity:1;stroke:#ffb81c;stroke-width:20.4493;stroke-dasharray:none;stroke-opacity:1"><path style="fill:#ffb81c;fill-opacity:1;stroke:#ffb81c;stroke-width:71.05;stroke-linecap:round;stroke-linejoin:round;stroke-dasharray:none;stroke-opacity:1" d="M249.877 957.671 78.654 661.105H421.1Z" transform="rotate(-135 388.948 139.224) scale(.10265)"/><path style="fill:#ffb81c;fill-opacity:1;stroke:#ffb81c;stroke-width:142.1;stroke-linecap:round;stroke-linejoin:round;stroke-dasharray:none;stroke-opacity:1" d="M249.877 957.671 78.654 661.105H421.1Z" transform="matrix(-.0363 -.0363 .0363 -.0363 609.82 450.274)"/></g><g style="fill:#ffb81c;fill-opacity:1;stroke:#ffb81c;stroke-width:20.4493;stroke-dasharray:none;stroke-opacity:1"><path style="fill:#ffb81c;fill-opacity:1;stroke:#ffb81c;stroke-width:71.05;stroke-linecap:round;stroke-linejoin:round;stroke-dasharray:none;stroke-opacity:1" d="M249.877 957.671 78.654 661.105H421.1Z" transform="rotate(135 132.854 335.525) scale(.10265)"/><path style="fill:#ffb81c;fill-opacity:1;stroke:#ffb81c;stroke-width:142.1;stroke-linecap:round;stroke-linejoin:round;stroke-dasharray:none;stroke-opacity:1" d="M249.877 957.671 78.654 661.105H421.1Z" transform="matrix(-.0363 .0363 -.0363 -.0363 401.624 434.547)"/></g></g></g></g></g></svg>