<svg width="1000" height="1000" xmlns:xlink="http://www.w3.org/1999/xlink" xmlns="http://www.w3.org/2000/svg"><defs><radialGradient xlink:href="#a" id="b" cx="498.547" cy="502.128" fx="498.547" fy="502.128" r="500" gradientUnits="userSpaceOnUse" gradientTransform="translate(.453 -1.128)"/><linearGradient id="a"><stop style="stop-color:#fff;stop-opacity:.61696005" offset=".345"/><stop style="stop-color:#fff;stop-opacity:.09" offset="1"/></linearGradient><path id="c" d="M-239.848 616.719h554.104v116.877h-554.104z"/></defs><g style="display:inline"><path style="display:inline;fill:url(#b);fill-opacity:.38;stroke:#000;stroke-width:0;stroke-linecap:square;stroke-linejoin:miter;stroke-miterlimit:0;stroke-dasharray:none;stroke-opacity:1;paint-order:markers fill stroke" d="M-1 1H999v1000H-1z"/><path style="display:inline;fill:#11111f;fill-opacity:1;stroke:#11111f;stroke-width:6.96129;stroke-linecap:round;stroke-linejoin:round;stroke-miterlimit:0;stroke-dasharray:none;stroke-opacity:1;paint-order:markers fill stroke" d="m408.151 276.822 181.189-32.346 178.036 31.783a31.041 31.041 50.03 0 1 25.586 30.524l.474 441.2a78.706 78.706 120.29 0 1-40.12 68.684L589.89 908.59l-163.34-91.877a79.066 79.066 59.648 0 1-40.304-68.827l-.477-444.305a27.154 27.154 129.908 0 1 22.381-26.76z" transform="matrix(1.45968 0 0 1.1752 -360.24 -266.674)"/><g style="display:inline;stroke:#ffb81c;stroke-width:18.1708;stroke-dasharray:none;stroke-opacity:1"><g style="stroke:#ffb81c;stroke-width:11.2291;stroke-dasharray:none;stroke-opacity:1"><g style="fill:none;stroke:#ffb81c;stroke-width:11.2291;stroke-dasharray:none;stroke-opacity:1"><path style="fill:none;fill-opacity:0;stroke:#ffb81c;stroke-width:11.2291;stroke-dasharray:none;stroke-opacity:1" d="M777.147 277.224h69.324v353.873h-69.324z" transform="translate(12.483 91.025) scale(.81195)"/><path d="M619.15 201.088h282.31a24.627 24.627 45 0 1 24.627 24.628 23.201 23.201 140.61 0 1-25.358 20.822H618.764a24.241 24.241 45 0 1-24.241-24.241 22.982 22.982 139.266 0 1 24.627-21.209z" style="fill:none;fill-opacity:0;stroke:#ffb81c;stroke-width:36.0399;stroke-linecap:round;stroke-linejoin:round;stroke-dasharray:none;stroke-opacity:1" transform="matrix(.2375 0 0 .26946 491.051 249.318)"/><path d="M619.15 201.088h282.31a24.627 24.627 45 0 1 24.627 24.628 23.201 23.201 140.61 0 1-25.358 20.822H618.764a24.241 24.241 45 0 1-24.241-24.241 22.982 22.982 139.266 0 1 24.627-21.209z" style="fill:none;fill-opacity:0;stroke:#ffb81c;stroke-width:36.0399;stroke-linecap:round;stroke-linejoin:round;stroke-dasharray:none;stroke-opacity:1" transform="matrix(.2375 0 0 .26946 491.051 549.639)"/></g><g style="fill:none;stroke:#ffb81c;stroke-width:11.2291;stroke-dasharray:none;stroke-opacity:1"><path style="fill:none;fill-opacity:0;stroke:#ffb81c;stroke-width:11.2291;stroke-dasharray:none;stroke-opacity:1" d="M383.615 277.224h69.324v353.873h-69.324z" transform="translate(-10.374 91.025) scale(.81195)"/><path d="M619.15 201.088h282.31a24.627 24.627 45 0 1 24.627 24.628 23.201 23.201 140.61 0 1-25.358 20.822H618.764a24.241 24.241 45 0 1-24.241-24.241 22.982 22.982 139.266 0 1 24.627-21.209z" style="fill:none;fill-opacity:0;stroke:#ffb81c;stroke-width:36.0399;stroke-linecap:round;stroke-linejoin:round;stroke-dasharray:none;stroke-opacity:1" transform="matrix(.2375 0 0 .26946 148.666 249.318)"/><path d="M619.15 201.088h282.31a24.627 24.627 45 0 1 24.627 24.628 23.201 23.201 140.61 0 1-25.358 20.822H618.764a24.241 24.241 45 0 1-24.241-24.241 22.982 22.982 139.266 0 1 24.627-21.209z" style="fill:none;fill-opacity:0;stroke:#ffb81c;stroke-width:36.0399;stroke-linecap:round;stroke-linejoin:round;stroke-dasharray:none;stroke-opacity:1" transform="matrix(.2375 0 0 .26946 148.666 549.639)"/></g><path style="fill:none;fill-opacity:1;stroke:#ffb81c;stroke-width:11.2291;stroke-linecap:round;stroke-linejoin:round;stroke-dasharray:none;stroke-opacity:1" d="M873.605 64.08v.18H381.52v-.045h-65.74V184.18a175.66 119.482 0 0 1 65.26 76.193h.48v-.436h74.697v-.726h.363l.076-.264h-.799c13.333-58.103 86.841-100.969 173.297-101.056 60.129.158 115.961 21.225 147.989 55.84a122.034 122.034 0 0 1 6.01 6.753 112.816 112.816 0 0 1 4.503 5.934c3.385 4.735 6.305 9.618 8.742 14.615.06.131.12.262.178.393 2.898 6.042 5.083 12.233 6.533 18.512h70.496v.298h3.854a175.66 119.482 0 0 1 61.887-74.095V64.08Z" transform="translate(-10.374 91.025) scale(.81195)"/></g><g style="display:inline;fill:#ffb81c;fill-opacity:1;stroke:#ffb81c;stroke-width:20.4493;stroke-dasharray:none;stroke-opacity:1"><path style="fill:#ffb81c;fill-opacity:1;stroke:#ffb81c;stroke-width:20.4493;stroke-linecap:round;stroke-linejoin:round;stroke-dasharray:none;stroke-opacity:1" d="m332.198 274.933 256.68 444.58 256.678-444.58Zm256.68.046A147.844 147.844 0 0 1 736.72 422.824a147.844 147.844 0 0 1-147.843 147.843 147.844 147.844 0 0 1-147.845-147.843 147.844 147.844 0 0 1 147.845-147.845Z" transform="translate(324.057 289.415) scale(.29724)"/><g style="fill:#ffb81c;fill-opacity:1;stroke:#ffb81c;stroke-width:20.4493;stroke-dasharray:none;stroke-opacity:1"><path style="fill:#ffb81c;fill-opacity:1;stroke:#ffb81c;stroke-width:71.05;stroke-linecap:round;stroke-linejoin:round;stroke-dasharray:none;stroke-opacity:1" d="M249.877 957.671 78.654 661.105H421.1Z" transform="translate(477.717 458.558) scale(.08555)"/><path style="fill:#ffb81c;fill-opacity:1;stroke:#ffb81c;stroke-width:142.1;stroke-linecap:round;stroke-linejoin:round;stroke-dasharray:none;stroke-opacity:1" d="M249.877 957.671 78.654 661.105H421.1Z" transform="translate(488.405 521.445) scale(.04277)"/></g><g style="fill:#ffb81c;fill-opacity:1;stroke:#ffb81c;stroke-width:20.4493;stroke-dasharray:none;stroke-opacity:1"><path style="fill:#ffb81c;fill-opacity:1;stroke:#ffb81c;stroke-width:71.05;stroke-linecap:round;stroke-linejoin:round;stroke-dasharray:none;stroke-opacity:1" d="M249.877 957.671 78.654 661.105H421.1Z" transform="rotate(-135 365.026 94.643) scale(.08555)"/><path style="fill:#ffb81c;fill-opacity:1;stroke:#ffb81c;stroke-width:142.1;stroke-linecap:round;stroke-linejoin:round;stroke-dasharray:none;stroke-opacity:1" d="M249.877 957.671 78.654 661.105H421.1Z" transform="rotate(-135 372.664 60.978) scale(.04277)"/></g><g style="fill:#ffb81c;fill-opacity:1;stroke:#ffb81c;stroke-width:20.4493;stroke-dasharray:none;stroke-opacity:1"><path style="fill:#ffb81c;fill-opacity:1;stroke:#ffb81c;stroke-width:71.05;stroke-linecap:round;stroke-linejoin:round;stroke-dasharray:none;stroke-opacity:1" d="M249.877 957.671 78.654 661.105H421.1Z" transform="rotate(135 154.748 293.408) scale(.08555)"/><path style="fill:#ffb81c;fill-opacity:1;stroke:#ffb81c;stroke-width:142.1;stroke-linecap:round;stroke-linejoin:round;stroke-dasharray:none;stroke-opacity:1" d="M249.877 957.671 78.654 661.105H421.1Z" transform="rotate(135 136.363 264.148) scale(.04277)"/></g></g></g><text xml:space="preserve" style="font-style:normal;font-variant:normal;font-weight:400;font-stretch:normal;font-size:96px;font-family:Orbitron;-inkscape-font-specification:'Orbitron, Normal';font-variant-ligatures:normal;font-variant-caps:normal;font-variant-numeric:normal;font-variant-east-asian:normal;white-space:pre;shape-inside:url(#c);display:inline;fill:#ffb81c;fill-opacity:1;stroke:#ffb81c;stroke-width:1;stroke-linecap:round;stroke-linejoin:round;stroke-miterlimit:0;stroke-dasharray:none;stroke-opacity:1;paint-order:markers fill stroke" transform="translate(448.856 310.815) scale(.8153)"><tspan x="-239.848" y="706.116">Perfet</tspan></text><path style="font-weight:700;font-size:96px;font-family:'DejaVu Sans';-inkscape-font-specification:'DejaVu Sans, Bold';white-space:pre;fill:#ffb81c;stroke:#ffb81c;stroke-width:.815296;stroke-linecap:round;stroke-linejoin:round;stroke-miterlimit:0;paint-order:markers fill stroke" d="M567.22 828.736c-7.603 0-13.845 1.82-18.738 5.447h37.489c-4.878-3.627-11.126-5.447-18.75-5.447zm40.473 1.03v4.417h18.776l-2.342-4.416zm37.186 0v4.417h13.95v-4.416zm-99.307 6.944a24.836 24.836 0 0 0-4.644 6.637h16.715c2.396-2.627 5.584-3.95 9.578-3.95 4.016 0 7.22 1.323 9.619 3.95h16.676a24.836 24.836 0 0 0-4.645-6.637zm62.121 0v6.637h23.635l-3.52-6.637zm37.186 0v6.637h13.95v-6.637zm-105.016 9.166c-.745 2.05-1.274 4.266-1.601 6.637h15.29c.442-2.553 1.191-4.77 2.26-6.637zm38.807 0c1.07 1.867 1.818 4.084 2.26 6.637h15.252c-.328-2.371-.857-4.587-1.602-6.637zm29.023 0v6.637h13.95v-4.822l2.556 4.822h11.99l-3.52-6.637zm37.186 0v6.637h13.95v-6.637zm-106.887 9.164a45.358 45.358 0 0 0-.12 3.313c0 1.139.039 2.246.118 3.324h15.246a37.673 37.673 0 0 1-.154-3.324c0-1.157.054-2.256.146-3.313zm43.262 0c.092 1.057.146 2.156.146 3.313 0 1.164-.06 2.261-.154 3.324h15.207a45.364 45.364 0 0 0-.002-6.637zm26.44 0v6.637h13.949v-6.637zm17.845 0 3.52 6.637h11.99l-3.52-6.637zm19.34 0v6.637h13.95v-6.637zm-106.6 9.166c.33 2.373.872 4.584 1.62 6.637h15.939c-1.077-1.87-1.837-4.081-2.281-6.637zm42.647 0c-.444 2.556-1.204 4.767-2.282 6.637h15.9c.748-2.053 1.29-4.264 1.62-6.637zm26.767 0v6.637h13.95v-6.637zm22.707 0 3.52 6.637h24.908v-6.637h-13.95v4.696l-2.49-4.696zm-89.43 9.164c1.199 2.481 2.741 4.699 4.65 6.637h43.204c1.908-1.938 3.45-4.156 4.649-6.637h-16.674c-2.395 2.596-5.586 3.9-9.578 3.9-3.97 0-7.145-1.304-9.537-3.9zm66.723 0v6.637h13.95v-6.637zm27.567 0 3.52 6.637h20.048v-6.637zm-86.71 9.166c4.882 3.594 11.102 5.397 18.67 5.397 7.59 0 13.816-1.803 18.684-5.397zm59.143 0v4.29h13.95v-4.29zm32.428 0 2.273 4.29h16.434v-4.29z"/><text xml:space="preserve" style="font-style:normal;font-variant:normal;font-weight:400;font-stretch:normal;font-size:51.9478px;font-family:'DejaVu Sans';-inkscape-font-specification:'DejaVu Sans, Normal';font-variant-ligatures:normal;font-variant-caps:normal;font-variant-numeric:normal;font-variant-east-asian:normal;fill:#ffb81c;fill-opacity:1;stroke:#ffb81c;stroke-width:.69573;stroke-linecap:round;stroke-linejoin:round;stroke-miterlimit:0;stroke-dasharray:none;stroke-opacity:1;paint-order:markers fill stroke" x="198.279" y="966.917"><tspan x="198.279" y="966.917" style="stroke-width:.69573">Not Only The Tech Blog</tspan></text></g></svg>